<svg width="20" height="20" viewBox="0 0 20 20" fill="none" xmlns="http://www.w3.org/2000/svg">
<g id="Vector">
<path d="M11.573 9.984C11.557 10.334 11.443 10.672 11.242 10.959C11.0404 11.2554 10.7502 11.4804 10.413 11.602C10.0791 11.7379 9.71177 11.7686 9.36 11.69C9.00653 11.6149 8.68387 11.4351 8.434 11.174C8.18667 10.9009 8.02407 10.5618 7.966 10.198C7.90115 9.84551 7.94546 9.48163 8.093 9.155C8.237 8.828 8.473 8.549 8.775 8.355C9.082 8.165 9.437 8.064 9.799 8.063C10.276 8.089 10.725 8.295 11.057 8.638C11.2287 8.81641 11.3629 9.02747 11.4515 9.25867C11.5401 9.48988 11.5814 9.73653 11.573 9.984Z" fill="white"/>
<path d="M15.015 5.752C14.9013 5.4709 14.7323 5.21554 14.5179 5.00114C14.3035 4.78673 14.0481 4.61766 13.767 4.504C13.4838 4.39431 13.1836 4.33509 12.88 4.329H6.718C6.10847 4.33137 5.52457 4.57456 5.09357 5.00557C4.66256 5.43657 4.41937 6.02047 4.417 6.63V12.909C4.41788 13.2119 4.47858 13.5116 4.59561 13.791C4.71265 14.0704 4.88372 14.3239 5.099 14.537C5.52986 14.9645 6.11108 15.2061 6.718 15.21H12.88C13.3339 15.2071 13.7769 15.0711 14.1543 14.8189C14.5317 14.5666 14.8267 14.2093 15.003 13.791C15.1198 13.5116 15.1803 13.2119 15.181 12.909V6.639C15.1778 6.33592 15.1216 6.03573 15.015 5.752ZM12.578 11.193C12.4317 11.5583 12.2126 11.8901 11.934 12.168C11.654 12.451 11.323 12.678 10.959 12.841C10.5647 13.0064 10.1407 13.0892 9.7131 13.0844C9.28553 13.0796 8.86349 12.9872 8.473 12.813C7.8449 12.5302 7.3297 12.0451 7.00975 11.4351C6.6898 10.8251 6.58355 10.1255 6.708 9.448C6.82716 8.84983 7.11478 8.29816 7.537 7.858C7.96697 7.42705 8.51397 7.13177 9.11017 7.00876C9.70638 6.88575 10.3256 6.94042 10.891 7.166C11.458 7.396 11.941 7.794 12.275 8.307C12.6125 8.80164 12.7959 9.38521 12.802 9.984C12.816 10.399 12.739 10.811 12.578 11.193ZM13.65 6.376C13.6594 6.45393 13.6522 6.53297 13.6288 6.6079C13.6054 6.68284 13.5664 6.75195 13.5143 6.81069C13.4622 6.86943 13.3983 6.91645 13.3267 6.94866C13.2551 6.98086 13.1775 6.99751 13.099 6.99751C13.0205 6.99751 12.9429 6.98086 12.8713 6.94866C12.7997 6.91645 12.7358 6.86943 12.6837 6.81069C12.6316 6.75195 12.5926 6.68284 12.5692 6.6079C12.5458 6.53297 12.5386 6.45393 12.548 6.376C12.5363 6.29682 12.5418 6.21605 12.5641 6.13919C12.5864 6.06232 12.625 5.99117 12.6773 5.93057C12.7296 5.86998 12.7943 5.82136 12.8671 5.78804C12.9399 5.75471 13.019 5.73746 13.099 5.73746C13.179 5.73746 13.2581 5.75471 13.3309 5.78804C13.4037 5.82136 13.4684 5.86998 13.5207 5.93057C13.573 5.99117 13.6116 6.06232 13.6339 6.13919C13.6562 6.21605 13.6617 6.29682 13.65 6.376Z" fill="white"/>
<path d="M14.625 0H4.875C3.58207 0 2.34209 0.513615 1.42785 1.42785C0.513615 2.34209 0 3.58207 0 4.875V14.625C0 15.2652 0.126096 15.8991 0.371087 16.4906C0.616079 17.082 0.975169 17.6195 1.42785 18.0721C2.34209 18.9864 3.58207 19.5 4.875 19.5H14.625C15.2652 19.5 15.8991 19.3739 16.4906 19.1289C17.082 18.8839 17.6195 18.5248 18.0721 18.0721C18.5248 17.6195 18.8839 17.082 19.1289 16.4906C19.3739 15.8991 19.5 15.2652 19.5 14.625V4.875C19.5 4.23481 19.3739 3.60088 19.1289 3.00942C18.8839 2.41796 18.5248 1.88054 18.0721 1.42785C17.6195 0.975169 17.082 0.616079 16.4906 0.371087C15.8991 0.126096 15.2652 0 14.625 0ZM16.692 12.812C16.702 13.322 16.605 13.831 16.409 14.303C16.0134 15.2503 15.2603 16.0034 14.313 16.399C13.84 16.595 13.333 16.691 12.821 16.682H6.825C6.31376 16.6893 5.8063 16.5934 5.333 16.4C4.86414 16.2029 4.43718 15.9181 4.075 15.561C3.7163 15.2003 3.43162 14.773 3.237 14.303C3.03057 13.8327 2.92432 13.3246 2.925 12.811V6.768C2.91799 6.25669 3.01424 5.74923 3.208 5.276C3.59476 4.32473 4.34109 3.56439 5.285 3.16C5.77534 2.96936 6.29918 2.8799 6.825 2.897H12.87C13.3768 2.89235 13.8794 2.98913 14.3483 3.18165C14.8171 3.37417 15.2427 3.65853 15.6 4.018C15.957 4.38 16.241 4.808 16.438 5.276C16.633 5.749 16.73 6.256 16.721 6.768L16.692 12.812Z" fill="white"/>
</g>
</svg>
