<svg width="20" height="17" viewBox="0 0 20 17" fill="none" xmlns="http://www.w3.org/2000/svg">
<g id="Vector">
<path d="M0.335848 2.5C2.16785 0.353 7.37635 5.91 9.83585 9C12.2958 5.91 17.5043 0.353 19.3358 2.5C19.6753 2.825 20.0573 3.9385 18.8358 5.5C18.4968 5.988 17.9288 7.353 18.3358 9.5C18.3358 10.0695 17.7783 10.976 15.3358 10C16.5233 10.8135 18.7608 13.048 17.3358 15C15.9788 16.708 12.8183 18.7285 10.8358 14L9.83585 12L8.83585 14C6.85385 18.7285 3.69285 16.708 2.33585 15C0.910848 13.048 3.14885 10.8135 4.33585 10C1.89335 10.976 1.33585 10.0695 1.33585 9.5C1.74285 7.353 1.17535 5.988 0.835848 5.5C-0.385152 3.9385 -0.00315174 2.825 0.335848 2.5Z" fill="white"/>
<path d="M9.85185 8C9.60285 5.432 12.2923 0 14.3358 0Z" fill="white"/>
<path d="M9.81985 8C10.0688 5.432 7.37935 0 5.33585 0Z" fill="white"/>
</g>
</svg>
